# xmcd
#
# Track frame offsets:
# 150
# 20515
# 36145
# 57577
# 76972
#
# Disc length: 1310 seconds
#
# Revision: 0
# Processed by: cddbd v1.5.2PL0 Copyright (c) Steve Scherf et al.
# Submitted via: Axialis_AX_CDPlayer 2.6
#
DISCID=38051c05
DTITLE=Trice-B - ...After [Single]
DYEAR=1900
DGENRE=
TTITLE0=후에 (...After)
TTITLE1=Tell Me Tonight (Ft. DJ Bluetrain)
TTITLE2=No. 15 (Ft. DJ Bluetrain)
TTITLE3=정말이예요 (It's True)
TTITLE4=No. 15 [Instrumental]
EXTD=
EXTT0=
EXTT1=
EXTT2=
EXTT3=
EXTT4=
PLAYORDER=
